<svg xmlns="http://www.w3.org/2000/svg" width="35" height="36" fill="none" viewBox="0 0 35 36">
  <path fill="#6C757D" fill-rule="evenodd" d="M22.783 3.91a2.191 2.191 0 1 0-.29 4.373 2.191 2.191 0 0 0 .29-4.373Zm-5.148 1.855a5.014 5.014 0 1 1 10.006.662 5.014 5.014 0 0 1-10.006-.662Zm10.572 11.241a2.191 2.191 0 1 0-.816 4.305 2.191 2.191 0 0 0 .816-4.305Zm-5.334 1.22a5.014 5.014 0 1 1 9.853 1.866 5.014 5.014 0 0 1-9.853-1.867Zm-3.695 9.804a2.191 2.191 0 1 0 0 4.383 2.191 2.191 0 0 0 0-4.382Zm-5.014 2.192a5.014 5.014 0 1 1 10.028 0 5.014 5.014 0 0 1-10.028 0ZM8.64 23.95a5.013 5.013 0 1 0 0-10.026 5.013 5.013 0 0 0 0 10.026Zm0 2.823a7.836 7.836 0 1 0 0-15.672 7.836 7.836 0 0 0 0 15.671Z" clip-rule="evenodd"/>
  <path fill="#6C757D" fill-rule="evenodd" d="M14.873 18.052h9.417v2.823h-9.417v-2.823Zm-.946 4.827 4.31 4.31-1.997 1.995-4.31-4.31 1.997-1.995Zm-1.206-9.41 6.485-6.397 1.983 2.01-6.485 6.397-1.983-2.01Z" clip-rule="evenodd"/>
</svg>
